<svg xmlns="http://www.w3.org/2000/svg" width="285.5" height="96.0" viewBox="0 0 285.5 96.0" role="img" aria-label="Algua"><g transform="translate(16.0,80.0) scale(0.09143,-0.09143)" fill="#000000"><path d="M28 0 257 700H371L600 0H533L473 186H155L95 0ZM173 244H455L320 662H308Z" transform="translate(0.0,0)"/><path d="M88 0V700H148V0Z" transform="translate(648.0,0)"/><path d="M64 241V253Q64 330 95.5 385.0Q127 440 180.0 470.0Q233 500 298 500Q378 500 422.5 468.5Q467 437 488 397H500V486H556V-124Q556 -160 537.0 -180.0Q518 -200 479 -200H147V-146H467Q498 -146 498 -116V93H486Q473 69 449.5 46.0Q426 23 389.0 8.5Q352 -6 298 -6Q233 -6 179.5 24.0Q126 54 95.0 109.5Q64 165 64 241ZM312 48Q395 48 446.5 100.0Q498 152 498 243V251Q498 343 446.5 394.5Q395 446 312 446Q230 446 178.0 394.5Q126 343 126 251V243Q126 152 178.0 100.0Q230 48 312 48Z" transform="translate(904.0,0)"/><path d="M275 -10Q223 -10 178.5 12.0Q134 34 107.5 78.5Q81 123 81 190V486H141V194Q141 115 181.0 79.5Q221 44 288 44Q363 44 413.0 93.5Q463 143 463 243V486H523V0H465V90H453Q435 51 394.0 20.5Q353 -10 275 -10Z" transform="translate(1568.0,0)"/><path d="M237 -14Q186 -14 144.5 3.5Q103 21 79.0 55.0Q55 89 55 137Q55 186 79.0 218.0Q103 250 144.0 266.0Q185 282 235 282H413V321Q413 380 379.0 413.0Q345 446 280 446Q216 446 178.5 414.5Q141 383 128 330L70 347Q82 390 108.0 424.5Q134 459 177.0 479.5Q220 500 280 500Q372 500 422.5 452.0Q473 404 473 318V82Q473 52 501 52H548V0H484Q453 0 435.0 18.5Q417 37 417 69V76H407Q394 54 373.5 33.0Q353 12 320.0 -1.0Q287 -14 237 -14ZM241 40Q318 40 365.5 86.5Q413 133 413 218V230H236Q184 230 149.5 207.5Q115 185 115 138Q115 91 150.5 65.5Q186 40 241 40Z" transform="translate(2199.0,0)"/></g></svg>
