<svg xmlns="http://www.w3.org/2000/svg" width="392.5" height="126.0" viewBox="0 0 392.5 126.0" role="img" aria-label="Algua"><g transform="translate(18.0,18.0)"><g transform="scale(0.9)"><defs><mask id="wl-knockout"><rect x="0" y="0" width="100" height="100" fill="white"/><rect x="0" y="54.5" width="100" height="15.0" fill="black"/></mask></defs><path d="M 14.0 90.0 L 50.0 10.0 L 86.0 90.0" stroke="#0C1618" fill="none" stroke-width="15.0" stroke-linejoin="miter" stroke-miterlimit="20" stroke-linecap="butt" mask="url(#wl-knockout)"/></g></g><g transform="translate(121.5,99.0) scale(0.09143,-0.09143)" fill="#0C1618"><path d="M21.499755859375 0 221.2486572265625 700H410.6514892578125L610.400390625 0H498.5487060546875L452.8492431640625 165.19921875H179.0509033203125L133.3514404296875 0ZM205.501220703125 264.80078125H426.39892578125L323.900146484375 632.7489013671875H308Z" transform="translate(0.0,0)"/><path d="M76.299560546875 0V700H179.201171875V0Z" transform="translate(644.0,0)"/><path d="M52.299560546875 244.2501220703125V258.8502197265625Q52.299560546875 336.500244140625 83.47454833984375 391.82525634765625Q114.6495361328125 447.1502685546875 166.67449951171875 476.82525634765625Q218.699462890625 506.500244140625 281.099365234375 506.500244140625Q353.299072265625 506.500244140625 391.62384033203125 479.87542724609375Q429.9486083984375 453.2506103515625 447.698486328125 422.3509521484375H463.5986328125V492.500244140625H563.80029296875V-100.59912109375Q563.80029296875 -146.3494873046875 537.6500244140625 -173.17474365234375Q511.499755859375 -200 465.3494873046875 -200H133.3494873046875V-109.5986328125H432.5487060546875Q461.5986328125 -109.5986328125 461.5986328125 -79.5986328125V77.3994140625H445.698486328125Q434.6485595703125 58.599609375 414.72369384765625 39.82476806640625Q394.798828125 21.0499267578125 362.3489990234375 8.82501220703125Q329.899169921875 -3.39990234375 281.099365234375 -3.39990234375Q218.699462890625 -3.39990234375 166.49951171875 26.27508544921875Q114.299560546875 55.9500732421875 83.299560546875 111.4500732421875Q52.299560546875 166.9500732421875 52.299560546875 244.2501220703125ZM309.39990234375 87.00146484375Q376.1492919921875 87.00146484375 419.52398681640625 129.2510986328125Q462.898681640625 171.500732421875 462.898681640625 246.900146484375V256.2001953125Q462.898681640625 332.599609375 419.8489990234375 374.3492431640625Q376.79931640625 416.098876953125 309.39990234375 416.098876953125Q243.00048828125 416.098876953125 199.4508056640625 374.3492431640625Q155.901123046875 332.599609375 155.901123046875 256.2001953125V246.900146484375Q155.901123046875 171.500732421875 199.4508056640625 129.2510986328125Q243.00048828125 87.00146484375 309.39990234375 87.00146484375Z" transform="translate(912.0,0)"/><path d="M264.599609375 -8.699951171875Q208.699462890625 -8.699951171875 164.8494873046875 16.22515869140625Q120.99951171875 41.1502685546875 96.12457275390625 87.27532958984375Q71.2496337890625 133.400390625 71.2496337890625 196.500244140625V492.500244140625H174.1512451171875V204.400390625Q174.1512451171875 140.3509521484375 206.02593994140625 109.72613525390625Q237.900634765625 79.101318359375 294.500244140625 79.101318359375Q358.4498291015625 79.101318359375 396.7493896484375 121.4510498046875Q435.0489501953125 163.80078125 435.0489501953125 243.6500244140625V492.500244140625H537.9505615234375V0H437.0489501953125V73.7493896484375H421.1488037109375Q407.0489501953125 43.8497314453125 371.2491455078125 17.57489013671875Q335.4493408203125 -8.699951171875 264.599609375 -8.699951171875Z" transform="translate(1564.0,0)"/><path d="M228.5496826171875 -14Q176.2496337890625 -14 134.42462158203125 4.1500244140625Q92.599609375 22.300048828125 68.27459716796875 57.27508544921875Q43.9495849609375 92.2501220703125 43.9495849609375 142.2001953125Q43.9495849609375 192.500244140625 68.27459716796875 226.12530517578125Q92.599609375 259.7503662109375 135.22467041015625 276.72540283203125Q177.8497314453125 293.700439453125 231.7498779296875 293.700439453125H382.4488525390625V325.5501708984375Q382.4488525390625 368.9495849609375 356.2491455078125 395.12432861328125Q330.0494384765625 421.299072265625 276.099853515625 421.299072265625Q223.1502685546875 421.299072265625 195.07562255859375 396.29931640625Q167.0009765625 371.299560546875 157.901123046875 330.6500244140625L62.19970703125 361.9505615234375Q74.19970703125 401.700439453125 100.52471923828125 434.2503662109375Q126.8497314453125 466.80029296875 170.82476806640625 486.6502685546875Q214.7998046875 506.500244140625 277.39990234375 506.500244140625Q373.300048828125 506.500244140625 428.02520751953125 457.8502197265625Q482.7503662109375 409.2001953125 482.7503662109375 318.6500244140625V115.80126953125Q482.7503662109375 85.80126953125 510.7503662109375 85.80126953125H553.2001953125V0H476.19970703125Q441.299560546875 0 419.3994140625 18.17498779296875Q397.499267578125 36.3499755859375 397.499267578125 67.0499267578125V70.1497802734375H381.6490478515625Q374.499267578125 54.6500244140625 358.22442626953125 34.62506103515625Q341.9495849609375 14.60009765625 310.899658203125 0.300048828125Q279.8497314453125 -14 228.5496826171875 -14ZM244.2501220703125 71.201171875Q305.6495361328125 71.201171875 344.0491943359375 106.6507568359375Q382.4488525390625 142.100341796875 382.4488525390625 203.699462890625V214.3994140625H237.9500732421875Q197.00048828125 214.3994140625 171.92584228515625 196.77459716796875Q146.8511962890625 179.1497802734375 146.8511962890625 145.1502685546875Q146.8511962890625 111.1507568359375 172.92584228515625 91.17596435546875Q199.00048828125 71.201171875 244.2501220703125 71.201171875Z" transform="translate(2190.0,0)"/></g><rect x="111.4" y="105.0" width="273.2" height="6.3" fill="#13C2CE"/></svg>
