<svg xmlns="http://www.w3.org/2000/svg" width="279.8" height="115.5" viewBox="0 0 279.8 115.5" role="img" aria-label="Algua"><rect x="0" y="0" width="279.8" height="115.5" fill="#000000"/><g transform="translate(16.00,80.00) scale(0.09417,-0.09417)" fill="#F3F6F6"><path d="M 46.1 0.0 L 341.8 749.6 L 635.5 0.0 L 587.1 0.0 L 331.7 635.8 L 350.8 635.8 L 93.3 0.0 ZM 165.2 209.8 L 341.3 249.4 L 517.5 209.8 Z" transform="translate(0.0,0)"/><path d="M77.1495361328125 0V699.6005859375H120.00146484375V0Z" transform="translate(698.0,0)"/><path d="M267.7998046875 -206.60009765625Q200.299560546875 -206.60009765625 145.8494873046875 -181.22503662109375Q91.3994140625 -155.8499755859375 58.099365234375 -108.39990234375L85.0506591796875 -81.4486083984375Q112.3507080078125 -119.99853515625 159.5504150390625 -143.098388671875Q206.7501220703125 -166.1982421875 268.9498291015625 -166.1982421875Q360.299072265625 -166.1982421875 414.02362060546875 -116.5487060546875Q467.7481689453125 -66.899169921875 467.7481689453125 17.4500732421875V134.60009765625L478.2484130859375 242.300048828125L467.7481689453125 347.60009765625V463.00048828125H510.60009765625V17.4500732421875Q510.60009765625 -49.8499755859375 480.300048828125 -100.07501220703125Q450 -150.300048828125 395.12493896484375 -178.4500732421875Q340.2498779296875 -206.60009765625 267.7998046875 -206.60009765625ZM279.79931640625 1.500244140625Q213.2493896484375 1.500244140625 160.8994140625 32.1502685546875Q108.5494384765625 62.80029296875 78.199462890625 116.100341796875Q47.8494873046875 169.400390625 47.8494873046875 237.400390625Q47.8494873046875 304.5504150390625 77.77447509765625 357.700439453125Q107.699462890625 410.8504638671875 160.0494384765625 441.92547607421875Q212.3994140625 473.00048828125 278.099365234375 473.00048828125Q331.699462890625 473.00048828125 375.12445068359375 452.97540283203125Q418.5494384765625 432.9503173828125 447.22430419921875 396.27520751953125Q475.899169921875 359.60009765625 485.2489013671875 309V164.6507568359375Q475.0491943359375 115.0506591796875 446.29931640625 78.300537109375Q417.5494384765625 41.5504150390625 374.97442626953125 21.52532958984375Q332.3994140625 1.500244140625 279.79931640625 1.500244140625ZM286.499755859375 41.7520751953125Q340.9493408203125 41.7520751953125 382.42401123046875 65.97686767578125Q423.898681640625 90.20166015625 446.77349853515625 134.30126953125Q469.6483154296875 178.40087890625 469.6483154296875 237.2503662109375Q469.6483154296875 295.2498779296875 446.3485107421875 338.92449951171875Q423.0487060546875 382.59912109375 381.57403564453125 407.67388916015625Q340.099365234375 432.7486572265625 284.7998046875 432.7486572265625Q228.6502685546875 432.7486572265625 184.97564697265625 407.67388916015625Q141.301025390625 382.59912109375 116.6512451171875 338.92449951171875Q92.00146484375 295.2498779296875 92.00146484375 238.100341796875Q92.00146484375 181.100830078125 117.07623291015625 136.501220703125Q142.1510009765625 91.901611328125 185.82562255859375 66.82684326171875Q229.500244140625 41.7520751953125 286.499755859375 41.7520751953125Z" transform="translate(911.0,0)"/><path d="M256.300048828125 -10Q201.30924010791367 -10 158.02943694848807 15.72503662109375Q114.7496337890625 41.4500732421875 90.37457275390625 87.22702761993773Q65.99951171875 133.00398199768796 65.99951171875 193.36919656175417V463.00048828125H108.8514404296875V194.9503173828125Q108.8514404296875 146.3507080078125 127.1512451171875 109.10107421875Q145.4510498046875 71.8514404296875 179.000732421875 50.77667236328125Q212.5504150390625 29.701904296875 256.3491947568696 29.701904296875Q322.99951171875 29.701904296875 363.37408447265625 75.62640380859375Q403.7486572265625 121.5509033203125 403.7486572265625 194.9503173828125V463.00048828125H446.6005859375V193.3502197265625Q446.6005859375 133.7501220703125 422.22552490234375 87.52508544921875Q397.8504638671875 41.300048828125 355.07983486257865 15.6500244140625Q312.30920585796986 -10 256.300048828125 -10Z" transform="translate(1514.0,0)"/><path d="M283.2493896484375 -10Q215.699462890625 -10 162.3494873046875 21.72503662109375Q108.99951171875 53.4500732421875 78.07452392578125 107.82513427734375Q47.1495361328125 162.2001953125 47.1495361328125 230.500244140625Q47.1495361328125 298.9503173828125 78.07452392578125 353.7503662109375Q108.99951171875 408.5504150390625 161.92449951171875 440.77545166015625Q214.8494873046875 473.00048828125 281.5494384765625 473.00048828125Q334.8494873046875 473.00048828125 377.3494873046875 452.900390625Q419.8494873046875 432.80029296875 447.82440185546875 396.0501708984375Q475.79931640625 359.300048828125 485.1490478515625 309V154.8504638671875Q474.9493408203125 104.5504150390625 447.0494384765625 67.37530517578125Q419.1495361328125 30.2001953125 377.42449951171875 10.10009765625Q335.699462890625 -10 283.2493896484375 -10ZM289.3497314453125 30.2518310546875Q371.59912109375 30.2518310546875 420.57379150390625 85.27642822265625Q469.5484619140625 140.301025390625 469.5484619140625 230.6502685546875Q469.5484619140625 291.499755859375 447.02362060546875 336.82440185546875Q424.498779296875 382.1490478515625 383.37408447265625 407.4488525390625Q342.2493896484375 432.7486572265625 287.6497802734375 432.7486572265625Q230.6502685546875 432.7486572265625 186.5506591796875 406.598876953125Q142.4510498046875 380.4490966796875 116.87628173828125 335.12445068359375Q91.301513671875 289.7998046875 91.301513671875 231.500244140625Q91.301513671875 173.20068359375 116.87628173828125 127.87603759765625Q142.4510498046875 82.5513916015625 187.400634765625 56.401611328125Q232.3502197265625 30.2518310546875 289.3497314453125 30.2518310546875ZM467.6483154296875 0V123.900146484375L478.1485595703125 238.3502197265625L467.6483154296875 350.100341796875V463.00048828125H510.500244140625V0Z" transform="translate(2043.0,0)"/><polygon points="-21.1,192.8 673.3,192.8 613.3,226.8 38.9,226.8" fill="#13C2CE"/></g></svg>
