<svg xmlns="http://www.w3.org/2000/svg" width="1280.0" height="360.0" viewBox="0 0 1280.0 360.0" role="img" aria-label="Algua"><rect x="0" y="0" width="1280.0" height="360.0" fill="#000000"/><defs><clipPath id="wlw"><rect x="0" y="180.0" width="628.0" height="68.0"/></clipPath></defs><g transform="translate(405.91,232.08) scale(0.17714,-0.17714)" fill="#F3F6F6"><path d="M 28.0 0.0 L 314.0 770.0 L 600.0 0.0 L 533.0 0.0 L 473.0 186.0 L 155.0 186.0 L 95.0 0.0 ZM 173.0 244.0 L 455.0 244.0 L 314.0 662.0 Z" transform="translate(0.0,0)"/><path d="M88 0V700H148V0Z" transform="translate(640.0,0)"/><path d="M198 -202Q150 -202 116.5 -187.5Q83 -173 65.5 -146.5Q48 -120 48 -84Q48 -42 67.5 -20.0Q87 2 106 12V22Q89 31 74.5 50.5Q60 70 60 102Q60 137 78.0 158.5Q96 180 118 188V208L174 167Q151 163 132.5 149.0Q114 135 114 107Q114 79 133.5 65.5Q153 52 187 52H368Q437 52 476.5 19.5Q516 -13 516 -72V-78Q516 -136 476.5 -169.0Q437 -202 368 -202ZM196 -152H370Q413 -152 437.5 -132.5Q462 -113 462 -76Q462 -38 437.5 -19.0Q413 0 370 0H196Q153 0 128.5 -19.0Q104 -38 104 -76Q104 -113 128.5 -132.5Q153 -152 196 -152ZM261 196Q320 196 357.5 231.0Q395 266 395 324Q395 382 357.5 417.0Q320 452 261 452Q202 452 164.5 417.0Q127 382 127 324Q127 266 164.5 231.0Q202 196 261 196ZM261 146Q206 146 162.5 166.5Q119 187 94.0 226.5Q69 266 69 322V326Q69 382 94.0 421.0Q119 460 162.5 480.0Q206 500 261 500Q284 500 304.5 495.5Q325 491 340 486H512V434H414V424Q429 404 439.0 379.0Q449 354 449 322Q449 237 396.5 191.5Q344 146 261 146Z" transform="translate(888.0,0)"/><path d="M275 -10Q223 -10 178.5 12.0Q134 34 107.5 78.5Q81 123 81 190V486H141V194Q141 115 181.0 79.5Q221 44 288 44Q363 44 413.0 93.5Q463 143 463 243V486H523V0H465V90H453Q435 51 394.0 20.5Q353 -10 275 -10Z" transform="translate(1446.0,0)"/><path d="M237 -14Q186 -14 144.5 3.5Q103 21 79.0 55.0Q55 89 55 137Q55 186 79.0 218.0Q103 250 144.0 266.0Q185 282 235 282H413V321Q413 380 379.0 413.0Q345 446 280 446Q216 446 178.5 414.5Q141 383 128 330L70 347Q82 390 108.0 424.5Q134 459 177.0 479.5Q220 500 280 500Q372 500 422.5 452.0Q473 404 473 318V82Q473 52 501 52H548V0H484Q453 0 435.0 18.5Q417 37 417 69V76H407Q394 54 373.5 33.0Q353 12 320.0 -1.0Q287 -14 237 -14ZM241 40Q318 40 365.5 86.5Q413 133 413 218V230H236Q184 230 149.5 207.5Q115 185 115 138Q115 91 150.5 65.5Q186 40 241 40Z" transform="translate(2069.0,0)"/><g clip-path="url(#wlw)"><path d="M 28.0 0.0 L 314.0 770.0 L 600.0 0.0 L 533.0 0.0 L 473.0 186.0 L 155.0 186.0 L 95.0 0.0 ZM 173.0 244.0 L 455.0 244.0 L 314.0 662.0 Z" fill="#13C2CE"/></g></g></svg>
